HIERARCHY
ROOT Hips
{
  OFFSET 13.9192 87.0099 7.45665
  CHANNELS 6 Xposition Yposition Zposition Zrotation Xrotation Yrotation
  JOINT RightUpLeg
  {
    OFFSET -9.25892 -1.51126 0.0103963
    CHANNELS 3 Zrotation Xrotation Yrotation
    JOINT RightLeg
    {
      OFFSET -0.0493687 -41.9019 0.103893
      CHANNELS 3 Zrotation Xrotation Yrotation
      JOINT RightFoot
      {
        OFFSET -1.32222 -41.6903 -0.651221
        CHANNELS 3 Zrotation Xrotation Yrotation
        End Site
        {
          OFFSET 0 -7.69 17.5
        }
      }
    }
  }
  JOINT LeftUpLeg
  {
    OFFSET 9.27814 -1.57439 0.0532125
    CHANNELS 3 Zrotation Xrotation Yrotation
    JOINT LeftLeg
    {
      OFFSET 0.0812204 -41.881 0.0464493
      CHANNELS 3 Zrotation Xrotation Yrotation
      JOINT LeftFoot
      {
        OFFSET -0.0110097 -42.3775 0.673629
        CHANNELS 3 Zrotation Xrotation Yrotation
        End Site
        {
          OFFSET 0 -7.69 17.5
        }
      }
    }
  }
  JOINT Spine
  {
    OFFSET 0.0235844 14.3019 0.0112981
    CHANNELS 3 Zrotation Xrotation Yrotation
    JOINT Spine1
    {
      OFFSET 0.0175769 9.71285 0.00895779
      CHANNELS 3 Zrotation Xrotation Yrotation
      JOINT Spine2
      {
        OFFSET 0.0285364 10.1117 0.00103808
        CHANNELS 3 Zrotation Xrotation Yrotation
        JOINT Spine3
        {
          OFFSET 0.0259409 9.72657 0.0104237
          CHANNELS 3 Zrotation Xrotation Yrotation
          JOINT Neck
          {
            OFFSET -0.0111787 10.3773 0.0255796
            CHANNELS 3 Zrotation Xrotation Yrotation
            JOINT Head
            {
              OFFSET -0.00267722 9.48908 0.0510269
              CHANNELS 3 Zrotation Xrotation Yrotation
              End Site
              {
                OFFSET 0 15.95 0
              }
            }
          }
          JOINT RightShoulder
          {
            OFFSET -3.1909 6.94591 0.0199124
            CHANNELS 3 Zrotation Xrotation Yrotation
            JOINT RightArm
            {
              OFFSET -12.7524 0.0197095 0.0110528
              CHANNELS 3 Zrotation Xrotation Yrotation
              JOINT RightForeArm
              {
                OFFSET -26.4891 -0.0606575 0.0254635
                CHANNELS 3 Zrotation Xrotation Yrotation
                JOINT RightHand
                {
                  OFFSET -26.017 -0.0465962 -0.00264686
                  CHANNELS 3 Zrotation Xrotation Yrotation
                  JOINT RightHandThumb1
                  {
                    OFFSET -2.48905 0.190105 3.12053
                    CHANNELS 3 Zrotation Xrotation Yrotation
                    JOINT RightHandThumb2
                    {
                      OFFSET -3.68274 0 0
                      CHANNELS 3 Zrotation Xrotation Yrotation
                      JOINT RightHandThumb3
                      {
                        OFFSET -2.55832 0 0
                        CHANNELS 3 Zrotation Xrotation Yrotation
                        End Site
                        {
                          OFFSET -2.194 0 0
                        }
                      }
                    }
                  }
                  JOINT RightInHandIndex
                  {
                    OFFSET -3.22368 0.508421 1.97842
                    CHANNELS 3 Zrotation Xrotation Yrotation
                    JOINT RightHandIndex1
                    {
                      OFFSET -5.21684 -0.091368 0.999158
                      CHANNELS 3 Zrotation Xrotation Yrotation
                      JOINT RightHandIndex2
                      {
                        OFFSET -3.61937 0 0
                        CHANNELS 3 Zrotation Xrotation Yrotation
                        JOINT RightHandIndex3
                        {
                          OFFSET -2.0521 0 0
                          CHANNELS 3 Zrotation Xrotation Yrotation
                          End Site
                          {
                            OFFSET -1.805 0 0
                          }
                        }
                      }
                    }
                  }
                  JOINT RightInHandMiddle
                  {
                    OFFSET -3.38211 0.517263 0.756737
                    CHANNELS 3 Zrotation Xrotation Yrotation
                    JOINT RightHandMiddle1
                    {
                      OFFSET -5.17411 -0.084 0.313895
                      CHANNELS 3 Zrotation Xrotation Yrotation
                      JOINT RightHandMiddle2
                      {
                        OFFSET -3.94947 0 0
                        CHANNELS 3 Zrotation Xrotation Yrotation
                        JOINT RightHandMiddle3
                        {
                          OFFSET -2.47579 0 0
                          CHANNELS 3 Zrotation Xrotation Yrotation
                          End Site
                          {
                            OFFSET -1.975 0 0
                          }
                        }
                      }
                    }
                  }
                  JOINT RightInHandRing
                  {
                    OFFSET -3.36516 0.537895 -0.128947
                    CHANNELS 3 Zrotation Xrotation Yrotation
                    JOINT RightHandRing1
                    {
                      OFFSET -4.63474 -0.022105 -0.478947
                      CHANNELS 3 Zrotation Xrotation Yrotation
                      JOINT RightHandRing2
                      {
                        OFFSET -3.44238 0 0
                        CHANNELS 3 Zrotation Xrotation Yrotation
                        JOINT RightHandRing3
                        {
                          OFFSET -2.3881 0 0
                          CHANNELS 3 Zrotation Xrotation Yrotation
                          End Site
                          {
                            OFFSET -1.857 0 0
                          }
                        }
                      }
                    }
                  }
                  JOINT RightInHandPinky
                  {
                    OFFSET -3.16105 0.469368 -1.20179
                    CHANNELS 3 Zrotation Xrotation Yrotation
                    JOINT RightHandPinky1
                    {
                      OFFSET -4.14105 -0.022105 -1.09053
                      CHANNELS 3 Zrotation Xrotation Yrotation
                      JOINT RightHandPinky2
                      {
                        OFFSET -2.75653 0 0
                        CHANNELS 3 Zrotation Xrotation Yrotation
                        JOINT RightHandPinky3
                        {
                          OFFSET -1.74189 0 0
                          CHANNELS 3 Zrotation Xrotation Yrotation
                          End Site
                          {
                            OFFSET -1.645 0 0
                          }
                        }
                      }
                    }
                  }
                }
              }
            }
          }
          JOINT LeftShoulder
          {
            OFFSET 3.2161 6.92611 -0.00186679
            CHANNELS 3 Zrotation Xrotation Yrotation
            JOINT LeftArm
            {
              OFFSET 12.7484 -0.0283569 -0.0302446
              CHANNELS 3 Zrotation Xrotation Yrotation
              JOINT LeftForeArm
              {
                OFFSET 26.4766 -0.0880322 -0.0033192
                CHANNELS 3 Zrotation Xrotation Yrotation
                JOINT LeftHand
                {
                  OFFSET 26.0079 -0.0456134 -0.0735001
                  CHANNELS 3 Zrotation Xrotation Yrotation
                  JOINT LeftHandThumb1
                  {
                    OFFSET 2.48905 0.190105 3.12053
                    CHANNELS 3 Zrotation Xrotation Yrotation
                    JOINT LeftHandThumb2
                    {
                      OFFSET 3.68274 0 0
                      CHANNELS 3 Zrotation Xrotation Yrotation
                      JOINT LeftHandThumb3
                      {
                        OFFSET 2.55832 0 0
                        CHANNELS 3 Zrotation Xrotation Yrotation
                        End Site
                        {
                          OFFSET 2.194 0 0
                        }
                      }
                    }
                  }
                  JOINT LeftInHandIndex
                  {
                    OFFSET 3.22368 0.508421 1.97842
                    CHANNELS 3 Zrotation Xrotation Yrotation
                    JOINT LeftHandIndex1
                    {
                      OFFSET 5.21684 -0.091368 0.999158
                      CHANNELS 3 Zrotation Xrotation Yrotation
                      JOINT LeftHandIndex2
                      {
                        OFFSET 3.61937 0 0
                        CHANNELS 3 Zrotation Xrotation Yrotation
                        JOINT LeftHandIndex3
                        {
                          OFFSET 2.0521 0 0
                          CHANNELS 3 Zrotation Xrotation Yrotation
                          End Site
                          {
                            OFFSET 1.805 0 0
                          }
                        }
                      }
                    }
                  }
                  JOINT LeftInHandMiddle
                  {
                    OFFSET 3.38211 0.517263 0.756737
                    CHANNELS 3 Zrotation Xrotation Yrotation
                    JOINT LeftHandMiddle1
                    {
                      OFFSET 5.17411 -0.084 0.313895
                      CHANNELS 3 Zrotation Xrotation Yrotation
                      JOINT LeftHandMiddle2
                      {
                        OFFSET 3.94947 0 0
                        CHANNELS 3 Zrotation Xrotation Yrotation
                        JOINT LeftHandMiddle3
                        {
                          OFFSET 2.47579 0 0
                          CHANNELS 3 Zrotation Xrotation Yrotation
                          End Site
                          {
                            OFFSET 1.975 0 0
                          }
                        }
                      }
                    }
                  }
                  JOINT LeftInHandRing
                  {
                    OFFSET 3.36516 0.537895 -0.128947
                    CHANNELS 3 Zrotation Xrotation Yrotation
                    JOINT LeftHandRing1
                    {
                      OFFSET 4.63474 -0.022105 -0.478947
                      CHANNELS 3 Zrotation Xrotation Yrotation
                      JOINT LeftHandRing2
                      {
                        OFFSET 3.44238 0 0
                        CHANNELS 3 Zrotation Xrotation Yrotation
                        JOINT LeftHandRing3
                        {
                          OFFSET 2.3881 0 0
                          CHANNELS 3 Zrotation Xrotation Yrotation
                          End Site
                          {
                            OFFSET 1.857 0 0
                          }
                        }
                      }
                    }
                  }
                  JOINT LeftInHandPinky
                  {
                    OFFSET 3.16105 0.469368 -1.20179
                    CHANNELS 3 Zrotation Xrotation Yrotation
                    JOINT LeftHandPinky1
                    {
                      OFFSET 4.14105 -0.022105 -1.09053
                      CHANNELS 3 Zrotation Xrotation Yrotation
                      JOINT LeftHandPinky2
                      {
                        OFFSET 2.75653 0 0
                        CHANNELS 3 Zrotation Xrotation Yrotation
                        JOINT LeftHandPinky3
                        {
                          OFFSET 1.74189 0 0
                          CHANNELS 3 Zrotation Xrotation Yrotation
                          End Site
                          {
                            OFFSET 1.645 0 0
                          }
                        }
                      }
                    }
                  }
                }
              }
            }
          }
        }
      }
    }
  }
}
MOTION
Frames: 3
Frame Time: 0.00833333
6.000547470425281062e+02 -1.264837275733535216e-01 -7.769055412850469633e-01 -7.779051787010793362e-01 -4.839161927483863201e-01 -2.528413831364689557e+00 -3.632554964388497454e-01 3.192686073457564166e+00 -1.429723384440588774e+00 -1.024768541996035065e+00 -9.676415006754501835e-01 1.093309482121731069e+00 -4.415406651542961858e-01 9.408720963211760768e-01 1.283532804087913259e+00 -4.493151918430300928e-01 4.825259133827116464e+00 -1.630155743516832345e+00 -3.417899383781825673e+00 -2.021410570930388950e-01 1.942741820556188381e+00 -3.911389669518133272e-01 -8.097937203708668319e-01 8.953916870090247171e-01 -2.175281013145832443e+00 -8.803305486871847441e-01 -6.382636850227652037e-01 -5.264739613372224625e-01 -5.768209079936903461e-01 -2.747314403553486883e-01 -8.519382816841576389e-01 -8.521352829501823711e-01 -2.598473765261982704e-01 1.659384634121531810e-01 -1.040605878977251125e-01 1.160966681915753806e-02 -8.320772558785319850e-01 -5.803208922931165636e-01 9.871547431817342400e+00 5.276544979179051964e+00 1.964416362786084447e+00 -7.113432733313013401e+00 -1.699947670832384350e-01 8.479528899349437765e-01 6.448750985589746243e-01 -2.226952142868754692e+01 -1.395764021125556731e+01 2.364149095431856029e+00 -2.857109547651479176e+00 1.522609617072211563e+01 -3.089824904162414398e+00 9.598700350255363389e+00 1.080593341868277335e+01 -1.314282943650247226e+00 0.000000000000000000e+00 0.000000000000000000e+00 0.000000000000000000e+00 4.226180684064222674e-15 -1.428570456221990286e-15 0.000000000000000000e+00 -6.542539774461583549e-15 4.145623763592729550e-15 0.000000000000000000e+00 3.514231256165940444e-15 9.670563335779613182e-16 2.146049537653656219e-15 0.000000000000000000e+00 0.000000000000000000e+00 0.000000000000000000e+00 0.000000000000000000e+00 -1.115488577141068651e-15 -5.960554300690089414e-15 0.000000000000000000e+00 -3.663171638387516662e-15 -2.262444304739492168e-14 3.514231256165940444e-15 9.670563335779613182e-16 2.146049537653656219e-15 0.000000000000000000e+00 -1.361070681601574324e-15 -3.724352979910405240e-15 0.000000000000000000e+00 -1.557944692582760553e-15 -1.489228712137507466e-14 0.000000000000000000e+00 -3.115337321041957009e-15 -1.775638510551343632e-14 3.514231256165940444e-15 9.670563335779613182e-16 2.146049537653656219e-15 0.000000000000000000e+00 0.000000000000000000e+00 0.000000000000000000e+00 0.000000000000000000e+00 -4.956641544393122732e-15 -8.365696069188312768e-15 0.000000000000000000e+00 -4.162637309799349109e-15 -2.270151814341423583e-14 3.514231256165940444e-15 9.670563335779613182e-16 2.146049537653656219e-15 0.000000000000000000e+00 0.000000000000000000e+00 0.000000000000000000e+00 0.000000000000000000e+00 2.889399641085009682e-16 -1.221762452744927732e-14 0.000000000000000000e+00 -1.715346972575900163e-15 -1.844621274415946784e-14 2.308801949335840042e+00 -1.020795737512776080e+00 8.624285200753293301e-01 -3.107142214962622440e+00 -1.050407820915183876e+01 -3.930531225466066925e+00 3.310878442209881367e+00 9.106671213594875747e-01 -1.176125007330234062e+01 -2.275071154747751834e+01 1.780161739904060880e+01 -1.113959350839423834e+01 0.000000000000000000e+00 0.000000000000000000e+00 0.000000000000000000e+00 7.474744233151298629e-15 7.728907578703650713e-15 0.000000000000000000e+00 2.217697292775076803e-15 8.411690993213837314e-15 0.000000000000000000e+00 -1.303516218839017844e-15 -1.514617425420386557e-15 -7.367690972596463331e-15 0.000000000000000000e+00 0.000000000000000000e+00 0.000000000000000000e+00 0.000000000000000000e+00 -6.598554462271333966e-15 5.968995478264194199e-15 0.000000000000000000e+00 -1.978210357575469324e-15 -4.923122848388096546e-15 -1.303516218839017844e-15 -1.514617425420386557e-15 -7.367690972596463331e-15 0.000000000000000000e+00 -1.993159302991900880e-17 1.343131262021406810e-14 0.000000000000000000e+00 1.924793562292782820e-15 1.008791820898172293e-14 0.000000000000000000e+00 1.076827678657051133e-14 -2.718169690301068574e-15 -1.303516218839017844e-15 -1.514617425420386557e-15 -7.367690972596463331e-15 0.000000000000000000e+00 0.000000000000000000e+00 0.000000000000000000e+00 0.000000000000000000e+00 -5.290479671208676106e-15 5.045388987967818491e-15 0.000000000000000000e+00 -5.227775474536185233e-15 -1.227398651753957313e-15 -1.303516218839017844e-15 -1.514617425420386557e-15 -7.367690972596463331e-15 0.000000000000000000e+00 0.000000000000000000e+00 0.000000000000000000e+00 0.000000000000000000e+00 9.704817148863042695e-16 3.228842298714899638e-15 0.000000000000000000e+00 8.192134872803458391e-16 -4.190490310804122922e-15
6.000109907995774847e+02 -1.254461643992001163e-01 -7.229134805774722894e-01 -7.440165717993934003e-01 -4.945311500308330888e-01 -2.466230263186457883e+00 -3.231976381457575820e-01 3.139195818410037919e+00 -1.393448387017820700e+00 -9.957650045182886434e-01 -9.186040216228008592e-01 1.100910610329334682e+00 -4.209953763759557432e-01 9.008250830660787800e-01 1.230833528809090360e+00 -4.599028480425260135e-01 4.752430185932030149e+00 -1.633875768779310844e+00 -3.380687030867231435e+00 -1.753485551571455636e-01 1.951596601563896805e+00 -3.727250646217139529e-01 -8.136464227589147447e-01 8.816906178664248861e-01 -2.099540481659198932e+00 -8.875598231760710721e-01 -6.707382267385388896e-01 -5.095842918776684050e-01 -5.843289022316389136e-01 -2.821242390396782040e-01 -8.245513975201903545e-01 -8.329391328701347685e-01 -2.852747400379082587e-01 1.569965892602056545e-01 -1.060003397827673083e-01 2.238064722904184456e-02 -8.081240726217105985e-01 -5.380472017739702517e-01 9.451534067982018783e+00 5.042557977871712893e+00 1.833427149510117760e+00 -6.603562072142529438e+00 -2.239568921584449979e-01 8.970577485792272654e-01 4.222403802706524156e-01 -2.142622320756461107e+01 -1.434245255590967183e+01 2.412399013600299291e+00 -2.490433548412527287e+00 1.561184312167129562e+01 -2.068206639561729787e+00 9.066536396069261983e+00 1.127863538176372060e+01 -1.132803182094150651e+00 0.000000000000000000e+00 0.000000000000000000e+00 0.000000000000000000e+00 5.257268655146564614e-15 -1.198783506221684317e-15 0.000000000000000000e+00 -5.919380544837397877e-15 4.195162474552885140e-15 0.000000000000000000e+00 3.297608694217682886e-15 1.534212205129017544e-15 2.529303228909916217e-15 0.000000000000000000e+00 0.000000000000000000e+00 0.000000000000000000e+00 0.000000000000000000e+00 -9.266046578504694618e-16 -5.399144854893550637e-15 0.000000000000000000e+00 -3.841128287902403541e-15 -2.226139922559704557e-14 3.297608694217682886e-15 1.534212205129017544e-15 2.529303228909916217e-15 0.000000000000000000e+00 -1.045032842769461301e-15 -3.783651139808812117e-15 0.000000000000000000e+00 -1.213173638543662865e-15 -1.471168328124677047e-14 0.000000000000000000e+00 -2.698381368477145860e-15 -1.955934831942593459e-14 3.297608694217682886e-15 1.534212205129017544e-15 2.529303228909916217e-15 0.000000000000000000e+00 0.000000000000000000e+00 0.000000000000000000e+00 0.000000000000000000e+00 -4.906111012969439071e-15 -8.038868123902657356e-15 0.000000000000000000e+00 -3.961029691659811910e-15 -2.358856095575002517e-14 3.297608694217682886e-15 1.534212205129017544e-15 2.529303228909916217e-15 0.000000000000000000e+00 0.000000000000000000e+00 0.000000000000000000e+00 0.000000000000000000e+00 2.092860811426627883e-16 -1.141755994855118526e-14 0.000000000000000000e+00 -1.579506803141584012e-15 -1.851331785022976248e-14 2.229646282353058950e+00 -9.768714071704702739e-01 7.325002701007062855e-01 -2.402565411339135260e+00 -1.058239263871827518e+01 -4.813945929900489418e+00 4.237891208524348308e+00 1.558547189756885887e+00 -1.112764811242247376e+01 -2.073266412392867863e+01 1.820335238984267434e+01 -9.777175727792831950e+00 0.000000000000000000e+00 0.000000000000000000e+00 0.000000000000000000e+00 6.825169448275949746e-15 7.369995304758981996e-15 0.000000000000000000e+00 2.793305838455313302e-15 8.976444000765868417e-15 0.000000000000000000e+00 -1.648969022449623569e-15 -1.402868833524213285e-15 -7.814353047336018995e-15 0.000000000000000000e+00 0.000000000000000000e+00 0.000000000000000000e+00 0.000000000000000000e+00 -6.140694492719805419e-15 6.148222770875912335e-15 0.000000000000000000e+00 -2.133127405638991619e-15 -4.939305021101511230e-15 -1.648969022449623569e-15 -1.402868833524213285e-15 -7.814353047336018995e-15 0.000000000000000000e+00 1.061749280522405930e-16 1.435094462019989144e-14 0.000000000000000000e+00 2.157213105245549163e-15 1.043985933886446877e-14 0.000000000000000000e+00 1.120817942609018756e-14 -3.177150940356907292e-15 -1.648969022449623569e-15 -1.402868833524213285e-15 -7.814353047336018995e-15 0.000000000000000000e+00 0.000000000000000000e+00 0.000000000000000000e+00 0.000000000000000000e+00 -4.554663881350192071e-15 4.925939949840039261e-15 0.000000000000000000e+00 -5.865892710130160328e-15 -1.518886825309573371e-15 -1.648969022449623569e-15 -1.402868833524213285e-15 -7.814353047336018995e-15 0.000000000000000000e+00 0.000000000000000000e+00 0.000000000000000000e+00 0.000000000000000000e+00 5.755916335361173781e-16 3.122255707599668196e-15 0.000000000000000000e+00 4.874093543311216669e-16 -5.193979337257948053e-15
5.999682401011870070e+02 -1.237772362075799382e-01 -6.689129372751498881e-01 -7.044487180178397034e-01 -5.040247567740905321e-01 -2.390256536793534003e+00 -2.843532678410117254e-01 3.077258007901397807e+00 -1.355409757313766228e+00 -9.628587946607796155e-01 -8.651846719581268719e-01 1.102105743781979008e+00 -3.982671956355566811e-01 8.535473884731068495e-01 1.176896537896288786e+00 -4.626231810648301912e-01 4.667295208074182078e+00 -1.625595992823695601e+00 -3.339139389981116146e+00 -1.508262059566039537e-01 1.953247130923730035e+00 -3.523962992058786714e-01 -8.115500462212139610e-01 8.612255623123293846e-01 -2.017391069587059160e+00 -8.956162433072207829e-01 -7.126309717987956427e-01 -4.913311883757806586e-01 -5.900504572784320834e-01 -2.916680665572405351e-01 -7.950532230359551589e-01 -8.113288784595595882e-01 -3.142143584701944659e-01 1.477545710220121711e-01 -1.078096718132012521e-01 3.367531986669790312e-02 -7.818641563915296189e-01 -4.947112777981282350e-01 9.008016616571081769e+00 4.795132049922991690e+00 1.693420054531031838e+00 -6.063844207834518940e+00 -2.871153777266637341e-01 9.473246274659649080e-01 1.922698651956728511e-01 -2.049511184750469539e+01 -1.467365138985418405e+01 2.440143870417960326e+00 -2.118035535270923031e+00 1.598123619016224595e+01 -9.921365463458400313e-01 8.485446944943852543e+00 1.174271115970138268e+01 -8.923980541517962939e-01 0.000000000000000000e+00 0.000000000000000000e+00 0.000000000000000000e+00 6.173411500021656589e-15 -9.249177616473100497e-16 0.000000000000000000e+00 -5.250982443927461889e-15 4.285898587846683408e-15 0.000000000000000000e+00 3.117132822394385836e-15 2.048737304769662406e-15 2.881916033531552013e-15 0.000000000000000000e+00 0.000000000000000000e+00 0.000000000000000000e+00 0.000000000000000000e+00 -8.221129710594063921e-16 -5.038359774457398722e-15 0.000000000000000000e+00 -4.035565335606870962e-15 -2.213719879631079129e-14 3.117132822394385836e-15 2.048737304769662406e-15 2.881916033531552013e-15 0.000000000000000000e+00 -7.574197197115145930e-16 -3.921120540679064094e-15 0.000000000000000000e+00 -8.641280006021327632e-16 -1.474087554366162001e-14 0.000000000000000000e+00 -2.385753676300257631e-15 -2.145190308102265167e-14 3.117132822394385836e-15 2.048737304769662406e-15 2.881916033531552013e-15 0.000000000000000000e+00 0.000000000000000000e+00 0.000000000000000000e+00 0.000000000000000000e+00 -4.859395995578744616e-15 -7.886416663751074503e-15 0.000000000000000000e+00 -3.843272715119855715e-15 -2.461559741121108998e-14 3.117132822394385836e-15 2.048737304769662406e-15 2.881916033531552013e-15 0.000000000000000000e+00 0.000000000000000000e+00 0.000000000000000000e+00 0.000000000000000000e+00 5.344590247950082956e-17 -1.093449939107763271e-14 0.000000000000000000e+00 -1.549614116683866396e-15 -1.877940501486979112e-14 2.157830651733756877e+00 -9.274900418834466365e-01 6.147810519331144974e-01 -1.676639175416965610e+00 -1.062603142145330715e+01 -5.707755941308966463e+00 5.113024228694310835e+00 2.221725035868860498e+00 -1.050000781957255214e+01 -1.853990468935422342e+01 1.856003981197549280e+01 -8.321889556583865755e+00 0.000000000000000000e+00 0.000000000000000000e+00 0.000000000000000000e+00 6.210334622915581033e-15 6.925445004615458575e-15 0.000000000000000000e+00 3.267324447269528762e-15 9.454138216861827457e-15 0.000000000000000000e+00 -2.022062292732414936e-15 -1.320359153381376911e-15 -8.168767554067834678e-15 0.000000000000000000e+00 0.000000000000000000e+00 0.000000000000000000e+00 0.000000000000000000e+00 -5.542124730998693323e-15 6.192809490992554886e-15 0.000000000000000000e+00 -2.283335765408103499e-15 -5.004408871477170254e-15 -2.022062292732414936e-15 -1.320359153381376911e-15 -8.168767554067834678e-15 0.000000000000000000e+00 1.896880135616932759e-16 1.506657826284382452e-14 0.000000000000000000e+00 2.399281835645598908e-15 1.060104498158475202e-14 0.000000000000000000e+00 1.152369791374269008e-14 -3.578182454396685143e-15 -2.022062292732414936e-15 -1.320359153381376911e-15 -8.168767554067834678e-15 0.000000000000000000e+00 0.000000000000000000e+00 0.000000000000000000e+00 0.000000000000000000e+00 -3.711527013845990694e-15 4.746068844284471248e-15 0.000000000000000000e+00 -6.338708330011281020e-15 -1.827703543116636646e-15 -2.022062292732414936e-15 -1.320359153381376911e-15 -8.168767554067834678e-15 0.000000000000000000e+00 0.000000000000000000e+00 0.000000000000000000e+00 0.000000000000000000e+00 1.708951216509224249e-16 3.033225482349089539e-15 0.000000000000000000e+00 1.463163323697841097e-16 -6.169758762698006572e-15
